<svg xmlns="http://www.w3.org/2000/svg" viewBox="0 0 200 200" fill="none">
  <defs>
    <linearGradient id="g1" x1="0%" y1="0%" x2="100%" y2="100%">
      <stop offset="0%" stop-color="#E8C97A"/>
      <stop offset="100%" stop-color="#B8944A"/>
    </linearGradient>
    <linearGradient id="g2" x1="0%" y1="0%" x2="100%" y2="100%">
      <stop offset="0%" stop-color="#AAAAAA"/>
      <stop offset="100%" stop-color="#666666"/>
    </linearGradient>
  </defs>

  <!-- Fundo circular suave -->
  <circle cx="100" cy="90" r="82" fill="rgba(255,255,255,0.03)" stroke="url(#g1)" stroke-width="1.2" opacity="0.4"/>

  <!-- Letra N -->
  <g transform="translate(22, 30)">
    <rect x="0" y="0" width="14" height="76" fill="url(#g1)"/>
    <polygon points="0,0 14,0 54,58 54,0 68,0 68,76 54,76 14,18 14,76 0,76" fill="url(#g1)"/>
  </g>

  <!-- Letra S -->
  <g transform="translate(110, 30)">
    <path d="M10,0 Q60,0 60,28 Q60,46 30,54 Q60,62 60,82 Q60,110 10,110 L0,110 L0,96 Q44,96 44,82 Q44,68 10,62 L0,62 L0,48 Q34,48 44,28 Q44,14 10,14 L0,14 L0,0 Z" fill="url(#g2)"/>
  </g>

  <!-- Texto NS SOLUTIONS -->
  <text x="100" y="192" font-family="Arial, sans-serif" font-size="13" font-weight="700" letter-spacing="4" fill="url(#g2)" text-anchor="middle" opacity="0.85">NS SOLUTIONS</text>
</svg>
